<svg class="w-3 h-3 text-red-500" width="24" height="24" viewBox="0 0 24 24" fill="none" xmlns="http://www.w3.org/2000/svg"><path d="M10.29 3.86L1.82 18C1.64556 18.3024 1.55293 18.6453 1.55201 18.9945C1.55108 19.3437 1.64189 19.6871 1.81442 19.9894C1.98695 20.2916 2.23483 20.5409 2.53096 20.7099C2.82709 20.879 3.16012 20.9616 3.493 20.95H20.507C20.8399 20.9616 21.1729 20.879 21.469 20.7099C21.7652 20.5409 22.0131 20.2916 22.1856 19.9894C22.3581 19.6871 22.4489 19.3437 22.448 18.9945C22.4471 18.6453 22.3544 18.3024 22.18 18L13.71 3.86C13.5317 3.56611 13.2807 3.32312 12.9841 3.1563C12.6875 2.98948 12.3562 2.90503 12.02 2.90503C11.6838 2.90503 11.3525 2.98948 11.0559 3.1563C10.7593 3.32312 10.5083 3.56611 10.33 3.86H10.29Z" stroke="currentColor" stroke-width="2" stroke-linecap="round" stroke-linejoin="round"></path><path d="M12 9V13" stroke="currentColor" stroke-width="2" stroke-linecap="round" stroke-linejoin="round"></path><path d="M12 17H12.01" stroke="currentColor" stroke-width="2" stroke-linecap="round" stroke-linejoin="round"></path></svg>