<svg width="100%" height="100%" viewBox="0 0 1400 900" preserveAspectRatio="xMidYMid slice" xmlns="http://www.w3.org/2000/svg"><path d="M 200 200 Q 500 200 600 400 T 900 300" fill="none" stroke="white" stroke-width="0.75" opacity="0.8"></path><path d="M 200 500 Q 500 500 600 500 T 900 300" fill="none" stroke="white" stroke-width="0.75" opacity="0.8"></path><circle cx="700" cy="450" r="180" stroke="white" stroke-width="0.5" fill="none" stroke-dasharray="4 4" opacity="0.6"></circle><path d="M 0 120 Q 350 80 600 180 T 1000 100 T 1400 200" fill="none" stroke="white" stroke-width="0.5" stroke-dasharray="8 6" opacity="0.7"></path><path d="M 0 700 Q 300 600 550 720 T 900 650 T 1400 750" fill="none" stroke="white" stroke-width="0.6" stroke-dasharray="5 8" opacity="0.6"></path><path d="M -50 350 Q 200 280 450 400 T 800 320 T 1200 450" fill="none" stroke="white" stroke-width="0.5" opacity="0.5"></path><path d="M 100 800 Q 400 750 700 850 T 1100 780 T 1500 900" fill="none" stroke="white" stroke-width="0.4" opacity="0.4"></path><path d="M 800 50 Q 900 150 1000 80 T 1200 180 T 1400 100" fill="none" stroke="white" stroke-width="0.5" stroke-dasharray="3 5" opacity="0.5"></path></svg>